<mxfile host="app.diagrams.net" modified="2023-07-04T06:49:57.911Z" agent="Mozilla/5.0 (Windows NT 10.0; Win64; x64; rv:109.0) Gecko/20100101 Firefox/114.0" version="21.5.2" etag="Lau91hUz4VReTaldrX01" type="github">
  <diagram name="Page-1" id="Yy_J_-YndW3yiRkKKnbh">
    <mxGraphModel>
      <root>
        <mxCell id="0" />
        <mxCell id="1" parent="0" />
      </root>
    </mxGraphModel>
  </diagram>
</mxfile>
